# xmcd CD database file
#
# Track frame offsets:
#	150
#	17612
#	36460
#	54853
#	75484
#	91107
#	109363
#	127168
#	142554
#	163559
#	184732
#	196681
#	215088
#	229254
#
# Disc length: 3292 seconds
#
# Revision: 2
# Processed by: cddbd v1.5.1PL0 Copyright (c) Steve Scherf et al.
# Submitted via: CDex 1.51
#
DISCID=b30cda0e
DTITLE=Joe Taino - Hoodoo Man
DYEAR=1996
DGENRE=Blues
TTITLE0=Dozer For A Dime
TTITLE1=Junkyard Dog
TTITLE2=Wide Glide
TTITLE3=Cold Pillow
TTITLE4=Loiza Aldea
TTITLE5=Goin' To Chicago
TTITLE6=Odd Blues
TTITLE7=Pickin' The Blues
TTITLE8=Hoodoo Man
TTITLE9=Lorraine
TTITLE10=Cry Of The Warrier
TTITLE11=Take Me Now
TTITLE12=Annalee
TTITLE13=Fortune Woman
EXTD=YEAR: 1996
EXTT0=
EXTT1=
EXTT2=
EXTT3=
EXTT4=
EXTT5=
EXTT6=
EXTT7=
EXTT8=
EXTT9=
EXTT10=
EXTT11=
EXTT12=
EXTT13=
PLAYORDER=
